STARTFONT 2.1
FONT -misc-simple-medium-r-normal--8-80-75-75-C-50-iso10646-1
SIZE 8 75 75
FONTBOUNDINGBOX 5 7 0 -1
STARTPROPERTIES 2
FONT_ASCENT 6
FONT_DESCENT 1
ENDPROPERTIES
CHARS 62

STARTCHAR A
ENCODING 65
SWIDTH 500 0
DWIDTH 6 0
BBX 5 7 0 -1
BITMAP
0E
11
11
1F
11
11
11
ENDCHAR

STARTCHAR B
ENCODING 66
SWIDTH 500 0
DWIDTH 6 0
BBX 5 7 0 -1
BITMAP
1E
11
11
1E
11
11
1E
ENDCHAR

STARTCHAR C
ENCODING 67
SWIDTH 500 0
DWIDTH 6 0
BBX 5 7 0 -1
BITMAP
0E
11
10
10
10
11
0E
ENDCHAR

STARTCHAR D
ENCODING 68
SWIDTH 500 0
DWIDTH 6 0
BBX 5 7 0 -1
BITMAP
1E
11
11
11
11
11
1E
ENDCHAR

STARTCHAR E
ENCODING 69
SWIDTH 500 0
DWIDTH 6 0
BBX 5 7 0 -1
BITMAP
1F
10
10
1E
10
10
1F
ENDCHAR

STARTCHAR F
ENCODING 70
SWIDTH 500 0
DWIDTH 6 0
BBX 5 7 0 -1
BITMAP
1F
10
10
1E
10
10
10
ENDCHAR

STARTCHAR G
ENCODING 71
SWIDTH 500 0
DWIDTH 6 0
BBX 5 7 0 -1
BITMAP
0E
11
10
17
11
11
0F
ENDCHAR

STARTCHAR H
ENCODING 72
SWIDTH 500 0
DWIDTH 6 0
BBX 5 7 0 -1
BITMAP
11
11
11
1F
11
11
11
ENDCHAR

STARTCHAR I
ENCODING 73
SWIDTH 500 0
DWIDTH 6 0
BBX 5 7 0 -1
BITMAP
0E
04
04
04
04
04
0E
ENDCHAR

STARTCHAR J
ENCODING 74
SWIDTH 500 0
DWIDTH 6 0
BBX 5 7 0 -1
BITMAP
01
01
01
01
11
11
0E
ENDCHAR

STARTCHAR K
ENCODING 75
SWIDTH 500 0
DWIDTH 6 0
BBX 5 7 0 -1
BITMAP
11
12
14
18
14
12
11
ENDCHAR

STARTCHAR L
ENCODING 76
SWIDTH 500 0
DWIDTH 6 0
BBX 5 7 0 -1
BITMAP
10
10
10
10
10
10
1F
ENDCHAR

STARTCHAR M
ENCODING 77
SWIDTH 500 0
DWIDTH 6 0
BBX 5 7 0 -1
BITMAP
11
1B
15
15
11
11
11
ENDCHAR

STARTCHAR N
ENCODING 78
SWIDTH 500 0
DWIDTH 6 0
BBX 5 7 0 -1
BITMAP
11
19
15
13
11
11
11
ENDCHAR

STARTCHAR O
ENCODING 79
SWIDTH 500 0
DWIDTH 6 0
BBX 5 7 0 -1
BITMAP
0E
11
11
11
11
11
0E
ENDCHAR

STARTCHAR P
ENCODING 80
SWIDTH 500 0
DWIDTH 6 0
BBX 5 7 0 -1
BITMAP
1E
11
11
1E
10
10
10
ENDCHAR

STARTCHAR Q
ENCODING 81
SWIDTH 500 0
DWIDTH 6 0
BBX 5 7 0 -1
BITMAP
0E
11
11
11
15
12
0D
ENDCHAR

STARTCHAR R
ENCODING 82
SWIDTH 500 0
DWIDTH 6 0
BBX 5 7 0 -1
BITMAP
1E
11
11
1E
14
12
11
ENDCHAR

STARTCHAR S
ENCODING 83
SWIDTH 500 0
DWIDTH 6 0
BBX 5 7 0 -1
BITMAP
0F
10
10
0E
01
01
1E
ENDCHAR

STARTCHAR T
ENCODING 84
SWIDTH 500 0
DWIDTH 6 0
BBX 5 7 0 -1
BITMAP
1F
04
04
04
04
04
04
ENDCHAR

STARTCHAR U
ENCODING 85
SWIDTH 500 0
DWIDTH 6 0
BBX 5 7 0 -1
BITMAP
11
11
11
11
11
11
0E
ENDCHAR

STARTCHAR V
ENCODING 86
SWIDTH 500 0
DWIDTH 6 0
BBX 5 7 0 -1
BITMAP
11
11
11
11
11
0A
04
ENDCHAR

STARTCHAR W
ENCODING 87
SWIDTH 500 0
DWIDTH 6 0
BBX 5 7 0 -1
BITMAP
11
11
11
15
15
1B
11
ENDCHAR

STARTCHAR X
ENCODING 88
SWIDTH 500 0
DWIDTH 6 0
BBX 5 7 0 -1
BITMAP
11
11
0A
04
0A
11
11
ENDCHAR

STARTCHAR Y
ENCODING 89
SWIDTH 500 0
DWIDTH 6 0
BBX 5 7 0 -1
BITMAP
11
11
0A
04
04
04
04
ENDCHAR

STARTCHAR Z
ENCODING 90
SWIDTH 500 0
DWIDTH 6 0
BBX 5 7 0 -1
BITMAP
1F
01
02
04
08
10
1F
ENDCHAR

STARTCHAR a
ENCODING 97
SWIDTH 500 0
DWIDTH 6 0
BBX 5 7 0 -1
BITMAP
00
00
0E
01
0F
11
0F
ENDCHAR

STARTCHAR b
ENCODING 98
SWIDTH 500 0
DWIDTH 6 0
BBX 5 7 0 -1
BITMAP
10
10
1E
11
11
11
1E
ENDCHAR

STARTCHAR c
ENCODING 99
SWIDTH 500 0
DWIDTH 6 0
BBX 5 7 0 -1
BITMAP
00
00
0E
11
10
11
0E
ENDCHAR

STARTCHAR d
ENCODING 100
SWIDTH 500 0
DWIDTH 6 0
BBX 5 7 0 -1
BITMAP
01
01
0F
11
11
11
0F
ENDCHAR

STARTCHAR e
ENCODING 101
SWIDTH 500 0
DWIDTH 6 0
BBX 5 7 0 -1
BITMAP
00
00
0E
11
1F
10
0E
ENDCHAR

STARTCHAR f
ENCODING 102
SWIDTH 500 0
DWIDTH 6 0
BBX 5 7 0 -1
BITMAP
06
08
1E
08
08
08
08
ENDCHAR

STARTCHAR g
ENCODING 103
SWIDTH 500 0
DWIDTH 6 0
BBX 5 7 0 -1
BITMAP
00
00
0F
11
11
0F
01
ENDCHAR

STARTCHAR h
ENCODING 104
SWIDTH 500 0
DWIDTH 6 0
BBX 5 7 0 -1
BITMAP
10
10
1E
11
11
11
11
ENDCHAR

STARTCHAR i
ENCODING 105
SWIDTH 500 0
DWIDTH 6 0
BBX 5 7 0 -1
BITMAP
04
00
0C
04
04
04
0E
ENDCHAR

STARTCHAR j
ENCODING 106
SWIDTH 500 0
DWIDTH 6 0
BBX 5 7 0 -1
BITMAP
02
00
06
02
02
12
0C
ENDCHAR

STARTCHAR k
ENCODING 107
SWIDTH 500 0
DWIDTH 6 0
BBX 5 7 0 -1
BITMAP
10
10
12
14
18
14
12
ENDCHAR

STARTCHAR l
ENCODING 108
SWIDTH 500 0
DWIDTH 6 0
BBX 5 7 0 -1
BITMAP
0C
04
04
04
04
04
0E
ENDCHAR

STARTCHAR m
ENCODING 109
SWIDTH 500 0
DWIDTH 6 0
BBX 5 7 0 -1
BITMAP
00
00
1A
15
15
15
15
ENDCHAR

STARTCHAR n
ENCODING 110
SWIDTH 500 0
DWIDTH 6 0
BBX 5 7 0 -1
BITMAP
00
00
1E
11
11
11
11
ENDCHAR

STARTCHAR o
ENCODING 111
SWIDTH 500 0
DWIDTH 6 0
BBX 5 7 0 -1
BITMAP
00
00
0E
11
11
11
0E
ENDCHAR

STARTCHAR p
ENCODING 112
SWIDTH 500 0
DWIDTH 6 0
BBX 5 7 0 -1
BITMAP
00
00
1E
11
11
1E
10
ENDCHAR

STARTCHAR q
ENCODING 113
SWIDTH 500 0
DWIDTH 6 0
BBX 5 7 0 -1
BITMAP
00
00
0F
11
11
0F
01
ENDCHAR

STARTCHAR r
ENCODING 114
SWIDTH 500 0
DWIDTH 6 0
BBX 5 7 0 -1
BITMAP
00
00
16
19
10
10
10
ENDCHAR

STARTCHAR s
ENCODING 115
SWIDTH 500 0
DWIDTH 6 0
BBX 5 7 0 -1
BITMAP
00
00
0F
10
0E
01
1E
ENDCHAR

STARTCHAR t
ENCODING 116
SWIDTH 500 0
DWIDTH 6 0
BBX 5 7 0 -1
BITMAP
08
08
1E
08
08
08
06
ENDCHAR

STARTCHAR u
ENCODING 117
SWIDTH 500 0
DWIDTH 6 0
BBX 5 7 0 -1
BITMAP
00
00
11
11
11
11
0F
ENDCHAR

STARTCHAR v
ENCODING 118
SWIDTH 500 0
DWIDTH 6 0
BBX 5 7 0 -1
BITMAP
00
00
11
11
11
0A
04
ENDCHAR

STARTCHAR w
ENCODING 119
SWIDTH 500 0
DWIDTH 6 0
BBX 5 7 0 -1
BITMAP
00
00
11
11
15
15
0A
ENDCHAR

STARTCHAR x
ENCODING 120
SWIDTH 500 0
DWIDTH 6 0
BBX 5 7 0 -1
BITMAP
00
00
11
0A
04
0A
11
ENDCHAR

STARTCHAR y
ENCODING 121
SWIDTH 500 0
DWIDTH 6 0
BBX 5 7 0 -1
BITMAP
00
00
11
11
11
0F
01
ENDCHAR

STARTCHAR z
ENCODING 122
SWIDTH 500 0
DWIDTH 6 0
BBX 5 7 0 -1
BITMAP
00
00
1F
02
04
08
1F
ENDCHAR

STARTCHAR 0
ENCODING 48
SWIDTH 500 0
DWIDTH 6 0
BBX 5 7 0 -1
BITMAP
0E
11
13
15
19
11
0E
ENDCHAR

STARTCHAR 1
ENCODING 49
SWIDTH 500 0
DWIDTH 6 0
BBX 5 7 0 -1
BITMAP
04
0C
04
04
04
04
0E
ENDCHAR

STARTCHAR 2
ENCODING 50
SWIDTH 500 0
DWIDTH 6 0
BBX 5 7 0 -1
BITMAP
0E
11
01
0E
10
10
1F
ENDCHAR

STARTCHAR 3
ENCODING 51
SWIDTH 500 0
DWIDTH 6 0
BBX 5 7 0 -1
BITMAP
1E
01
01
0E
01
01
1E
ENDCHAR

STARTCHAR 4
ENCODING 52
SWIDTH 500 0
DWIDTH 6 0
BBX 5 7 0 -1
BITMAP
02
06
0A
12
1F
02
02
ENDCHAR

STARTCHAR 5
ENCODING 53
SWIDTH 500 0
DWIDTH 6 0
BBX 5 7 0 -1
BITMAP
1F
10
1E
01
01
11
0E
ENDCHAR

STARTCHAR 6
ENCODING 54
SWIDTH 500 0
DWIDTH 6 0
BBX 5 7 0 -1
BITMAP
06
08
10
1E
11
11
0E
ENDCHAR

STARTCHAR 7
ENCODING 55
SWIDTH 500 0
DWIDTH 6 0
BBX 5 7 0 -1
BITMAP
1F
01
02
04
08
08
08
ENDCHAR

STARTCHAR 8
ENCODING 56
SWIDTH 500 0
DWIDTH 6 0
BBX 5 7 0 -1
BITMAP
0E
11
11
0E
11
11
0E
ENDCHAR

STARTCHAR 9
ENCODING 57
SWIDTH 500 0
DWIDTH 6 0
BBX 5 7 0 -1
BITMAP
0E
11
11
0F
01
02
0C
ENDCHAR

ENDFONT
